<mxfile host="Electron" modified="2023-11-16T19:10:06.584Z" agent="Mozilla/5.0 (Windows NT 10.0; Win64; x64) AppleWebKit/537.36 (KHTML, like Gecko) draw.io/22.0.2 Chrome/114.0.5735.289 Electron/25.8.4 Safari/537.36" etag="Uku2fuTQSQf6sWUJ3Skc" version="22.0.2" type="device">
  <diagram id="C5RBs43oDa-KdzZeNtuy" name="Page-1">
    <mxGraphModel dx="1715" dy="983" grid="1" gridSize="10" guides="1" tooltips="1" connect="1" arrows="1" fold="1" page="1" pageScale="1" pageWidth="827" pageHeight="1169" math="0" shadow="0">
      <root>
        <mxCell id="WIyWlLk6GJQsqaUBKTNV-0" />
        <mxCell id="WIyWlLk6GJQsqaUBKTNV-1" parent="WIyWlLk6GJQsqaUBKTNV-0" />
        <mxCell id="zkfFHV4jXpPFQw0GAbJ--0" value="World" style="swimlane;fontStyle=0;align=center;verticalAlign=top;childLayout=stackLayout;horizontal=1;startSize=26;horizontalStack=0;resizeParent=1;resizeLast=0;collapsible=1;marginBottom=0;rounded=0;shadow=0;strokeWidth=1;" parent="WIyWlLk6GJQsqaUBKTNV-1" vertex="1">
          <mxGeometry x="43" y="160" width="160" height="50" as="geometry">
            <mxRectangle x="230" y="140" width="160" height="26" as="alternateBounds" />
          </mxGeometry>
        </mxCell>
        <mxCell id="UHsNWMf219twzW6rNZd3-2" style="edgeStyle=orthogonalEdgeStyle;rounded=0;orthogonalLoop=1;jettySize=auto;html=1;exitX=1;exitY=0.5;exitDx=0;exitDy=0;entryX=0;entryY=0.5;entryDx=0;entryDy=0;endArrow=open;endFill=0;" edge="1" parent="WIyWlLk6GJQsqaUBKTNV-1" source="zkfFHV4jXpPFQw0GAbJ--17" target="UHsNWMf219twzW6rNZd3-1">
          <mxGeometry relative="1" as="geometry" />
        </mxCell>
        <mxCell id="UHsNWMf219twzW6rNZd3-3" value="has" style="edgeLabel;html=1;align=center;verticalAlign=middle;resizable=0;points=[];" vertex="1" connectable="0" parent="UHsNWMf219twzW6rNZd3-2">
          <mxGeometry x="0.5" y="49" relative="1" as="geometry">
            <mxPoint x="-38" y="40" as="offset" />
          </mxGeometry>
        </mxCell>
        <mxCell id="UHsNWMf219twzW6rNZd3-5" value="1..*" style="edgeLabel;html=1;align=center;verticalAlign=middle;resizable=0;points=[];" vertex="1" connectable="0" parent="UHsNWMf219twzW6rNZd3-2">
          <mxGeometry x="0.7" relative="1" as="geometry">
            <mxPoint y="-9" as="offset" />
          </mxGeometry>
        </mxCell>
        <mxCell id="UHsNWMf219twzW6rNZd3-7" value="1" style="edgeLabel;html=1;align=center;verticalAlign=middle;resizable=0;points=[];" vertex="1" connectable="0" parent="UHsNWMf219twzW6rNZd3-2">
          <mxGeometry x="-0.8589" relative="1" as="geometry">
            <mxPoint y="-9" as="offset" />
          </mxGeometry>
        </mxCell>
        <mxCell id="zkfFHV4jXpPFQw0GAbJ--17" value="Chunk" style="swimlane;fontStyle=0;align=center;verticalAlign=top;childLayout=stackLayout;horizontal=1;startSize=26;horizontalStack=0;resizeParent=1;resizeLast=0;collapsible=1;marginBottom=0;rounded=0;shadow=0;strokeWidth=1;" parent="WIyWlLk6GJQsqaUBKTNV-1" vertex="1">
          <mxGeometry x="331" y="160" width="160" height="50" as="geometry">
            <mxRectangle x="550" y="140" width="160" height="26" as="alternateBounds" />
          </mxGeometry>
        </mxCell>
        <mxCell id="zkfFHV4jXpPFQw0GAbJ--26" value="" style="endArrow=none;shadow=0;strokeWidth=1;rounded=0;endFill=0;edgeStyle=elbowEdgeStyle;elbow=vertical;" parent="WIyWlLk6GJQsqaUBKTNV-1" source="zkfFHV4jXpPFQw0GAbJ--0" target="zkfFHV4jXpPFQw0GAbJ--17" edge="1">
          <mxGeometry x="0.5" y="41" relative="1" as="geometry">
            <mxPoint x="203" y="232" as="sourcePoint" />
            <mxPoint x="363" y="232" as="targetPoint" />
            <mxPoint x="-40" y="32" as="offset" />
          </mxGeometry>
        </mxCell>
        <mxCell id="zkfFHV4jXpPFQw0GAbJ--28" value="0..*" style="resizable=0;align=right;verticalAlign=bottom;labelBackgroundColor=none;fontSize=12;" parent="zkfFHV4jXpPFQw0GAbJ--26" connectable="0" vertex="1">
          <mxGeometry x="1" relative="1" as="geometry">
            <mxPoint x="-7" as="offset" />
          </mxGeometry>
        </mxCell>
        <mxCell id="zkfFHV4jXpPFQw0GAbJ--29" value="consists of" style="text;html=1;resizable=0;points=[];;align=center;verticalAlign=middle;labelBackgroundColor=none;rounded=0;shadow=0;strokeWidth=1;fontSize=12;" parent="zkfFHV4jXpPFQw0GAbJ--26" vertex="1" connectable="0">
          <mxGeometry x="0.5" y="49" relative="1" as="geometry">
            <mxPoint x="-38" y="40" as="offset" />
          </mxGeometry>
        </mxCell>
        <mxCell id="UHsNWMf219twzW6rNZd3-6" value="1" style="edgeLabel;html=1;align=center;verticalAlign=middle;resizable=0;points=[];" vertex="1" connectable="0" parent="zkfFHV4jXpPFQw0GAbJ--26">
          <mxGeometry x="-0.8588" y="2" relative="1" as="geometry">
            <mxPoint y="-7" as="offset" />
          </mxGeometry>
        </mxCell>
        <mxCell id="UHsNWMf219twzW6rNZd3-1" value="Tile" style="swimlane;fontStyle=0;align=center;verticalAlign=top;childLayout=stackLayout;horizontal=1;startSize=26;horizontalStack=0;resizeParent=1;resizeLast=0;collapsible=1;marginBottom=0;rounded=0;shadow=0;strokeWidth=1;" vertex="1" parent="WIyWlLk6GJQsqaUBKTNV-1">
          <mxGeometry x="623" y="160" width="160" height="50" as="geometry">
            <mxRectangle x="550" y="140" width="160" height="26" as="alternateBounds" />
          </mxGeometry>
        </mxCell>
      </root>
    </mxGraphModel>
  </diagram>
</mxfile>
